<svg width="282" height="116" viewBox="0 0 282 116" fill="none" xmlns="http://www.w3.org/2000/svg">
<g filter="url(#filter0_d_5912_7172)">
<path d="M18.6555 40.3722C19.6598 36.0692 20.8845 32.4958 22.3297 29.6521C23.7686 26.7258 25.5012 24.3994 27.5273 22.6727C29.5472 20.8636 31.8546 19.5718 34.4494 18.7973C37.1204 17.9342 40.1871 17.3731 43.6494 17.114C48.8429 16.7253 52.8584 17.2123 55.696 18.575C58.5275 19.8552 60.1036 22.6387 60.4244 26.9254C60.6342 29.7282 60.2781 33.278 59.3562 37.5748L48.0276 88.9074C47.0233 93.2104 45.8017 96.825 44.3627 99.7512C42.9176 102.595 41.185 104.921 39.1651 106.731C37.139 108.457 34.7873 109.711 32.1101 110.492C29.4391 111.355 26.4136 111.913 23.0337 112.166C17.8402 112.554 13.7835 112.07 10.8634 110.714C8.03199 109.434 6.45586 106.65 6.13504 102.363C6.03016 100.962 6.07781 99.3834 6.278 97.6276C6.47818 95.8717 6.82781 93.8975 7.3269 91.7048L18.6555 40.3722ZM23.9058 90.5884C23.778 91.0953 23.6882 91.558 23.6366 91.9763C23.5851 92.3947 23.5654 92.6863 23.5778 92.8512C23.6703 94.0877 24.6646 94.635 26.5606 94.4931C27.962 94.3882 29.009 93.9783 29.7016 93.2633C30.3942 92.5483 30.9673 91.3448 31.421 89.6529L31.4302 89.7766L42.7773 38.6912C42.9629 37.8484 43.0341 37.1384 42.9909 36.5613C42.8922 35.2424 41.9361 34.6507 40.1225 34.7865C37.3196 34.9962 35.6965 36.5684 35.2529 39.5031L23.9058 90.5884ZM65.2673 36.8837C66.2716 32.5808 67.4964 29.0074 68.9415 26.1636C70.3805 23.2374 72.113 20.911 74.1391 19.1843C76.1591 17.3751 78.4664 16.0833 81.0612 15.3089C83.7322 14.4458 86.7989 13.8847 90.2612 13.6255C95.4547 13.2369 99.4702 13.7239 102.308 15.0866C105.139 16.3668 106.715 19.1503 107.036 23.437C107.246 26.2398 106.89 29.7896 105.968 34.0864L94.6395 85.419C93.6351 89.722 92.4135 93.3366 90.9745 96.2628C89.5294 99.1066 87.7969 101.433 85.7769 103.242C83.7508 104.969 81.3991 106.223 78.7219 107.003C76.0509 107.866 73.0254 108.424 69.6456 108.677C64.4521 109.066 60.3953 108.582 57.4753 107.225C54.6438 105.945 53.0677 103.162 52.7469 98.875C52.642 97.4736 52.6896 95.895 52.8898 94.1392C53.09 92.3833 53.4396 90.4091 53.9387 88.2164L65.2673 36.8837ZM70.5176 87.0999C70.3898 87.6069 70.3001 88.0696 70.2485 88.4879C70.1969 88.9063 70.1773 89.1979 70.1896 89.3627C70.2821 90.5993 71.2764 91.1466 73.1725 91.0047C74.5739 90.8998 75.6209 90.4899 76.3134 89.7749C77.006 89.0598 77.5791 87.8564 78.0328 86.1645L78.042 86.2881L89.3891 35.2028C89.5747 34.3599 89.646 33.65 89.6028 33.0729C89.5041 31.7539 88.5479 31.1623 86.7343 31.298C83.9315 31.5078 82.3083 33.08 81.8647 36.0146L70.5176 87.0999ZM120.349 71.8063C120.209 72.1484 120.145 72.4018 120.158 72.5667C120.246 72.643 120.303 72.846 120.328 73.1757L113.741 103.139C113.601 103.481 113.407 103.661 113.16 103.68L97.827 104.827C97.25 104.87 97.0254 104.639 97.1532 104.132L117.131 13.8528C117.272 13.5107 117.465 13.3305 117.713 13.3119L136.632 11.896C142.32 11.4703 146.497 11.9038 149.164 13.1964C151.824 14.4065 153.299 16.9489 153.589 20.8234C153.811 23.7911 153.42 27.4264 152.416 31.7294L148.605 48.9258C147.67 53.0577 146.56 56.4981 145.274 59.2471C144.07 61.99 142.496 64.2217 140.552 65.9422C138.691 67.6565 136.384 68.9483 133.63 69.8176C130.959 70.6807 127.686 71.2572 123.812 71.5472L123.07 71.6027C122.493 71.6459 122.265 71.3728 122.387 70.7834L126.624 54.3011C126.688 54.0477 126.885 53.9086 127.215 53.8839L127.71 53.8469C128.452 53.7914 129.102 53.6184 129.66 53.3279C130.295 52.9488 130.829 52.3285 131.262 51.4671C131.777 50.5996 132.271 49.4435 132.743 47.9989C133.209 46.4719 133.686 44.5296 134.172 42.172C134.863 39.2189 135.35 36.8613 135.633 35.0993C135.915 33.3373 136.023 32.0029 135.955 31.0961C135.893 30.2717 135.65 29.7926 135.225 29.6585C134.801 29.5245 134.176 29.4883 133.352 29.55L129.89 29.8092L124.686 53.3271L124.458 53.5929L120.349 71.8063ZM177.826 36.7911C177.249 36.8343 177.022 36.5611 177.143 35.9718L178.381 30.9053L178.39 31.0289C178.755 29.2608 178.903 27.9233 178.836 27.0165C178.706 25.2853 177.817 24.4814 176.168 24.6048C174.767 24.7097 173.653 25.3319 172.826 26.4714C172 27.611 171.349 29.442 170.875 31.9644C170.683 32.7248 170.567 33.3967 170.528 33.9799C170.489 34.5631 170.491 35.1433 170.534 35.7203C170.694 37.8636 171.369 39.6784 172.558 41.1644C173.747 42.6505 175.104 44.1655 176.629 45.7093C177.616 46.7131 178.609 47.7994 179.608 48.968C180.601 50.0543 181.524 51.3116 182.377 52.7399C183.23 54.1682 183.972 55.7707 184.602 57.5473C185.233 59.3238 185.631 61.325 185.798 63.5508C185.921 65.1995 185.892 67.0254 185.71 69.0286C185.605 70.9431 185.306 73.038 184.813 75.3131C183.763 80.1168 182.531 84.1467 181.117 87.4026C179.785 90.6524 178.121 93.3468 176.126 95.4856C174.125 97.5421 171.709 99.0492 168.879 100.007C166.138 101.041 162.871 101.7 159.079 101.984L156.854 102.151C156.277 102.194 156.049 101.921 156.171 101.331L160.646 84.7069C160.78 84.2823 161.018 84.1402 161.361 84.2804C161.696 84.3381 162.112 84.3485 162.606 84.3115C164.09 84.2004 165.245 83.5751 166.072 82.4356C166.899 81.2961 167.593 79.5032 168.156 77.057C168.515 75.2064 168.642 73.5804 168.537 72.179C168.352 69.7059 167.618 67.647 166.334 66.0022C165.051 64.3574 163.643 62.7219 162.112 61.0956C161.125 60.0918 160.135 59.0468 159.142 57.9605C158.143 56.7918 157.22 55.5346 156.373 54.1887C155.602 52.7542 154.908 51.2311 154.29 49.6194C153.748 47.9191 153.397 45.9972 153.237 43.8539C152.984 40.474 153.35 36.5089 154.336 31.9587C155.27 27.8268 156.413 24.2596 157.763 21.2571C159.107 18.1722 160.783 15.6427 162.791 13.6687C164.792 11.6123 167.163 10.067 169.905 9.03285C172.722 7.91013 175.985 7.20995 179.695 6.93232C184.806 6.54981 188.707 7.16972 191.399 8.79207C194.172 10.4082 195.719 13.3597 196.04 17.6463C196.25 20.4492 195.888 23.9165 194.954 28.0485L193.37 35.1304C193.229 35.4725 193.036 35.6528 192.788 35.6713L177.826 36.7911ZM228.83 68.0397C228.684 68.2994 228.487 68.4385 228.24 68.457L217.234 69.2806C216.657 69.3238 216.433 69.0919 216.561 68.5849L228.38 5.52702C228.52 5.18494 228.713 5.00464 228.961 4.98613L244.418 3.82935C244.995 3.78616 245.222 4.05927 245.101 4.64866L228.83 68.0397ZM227.193 77.7369C227.77 77.6937 227.995 77.9256 227.867 78.4326L224.248 94.8685C224.107 95.2106 223.914 95.3909 223.666 95.4094L209.941 96.4367C209.364 96.4798 209.139 96.248 209.267 95.741L212.886 79.305C213.027 78.963 213.22 78.7827 213.468 78.7642L227.193 77.7369ZM256 66.0063C255.854 66.266 255.657 66.405 255.41 66.4236L244.405 67.2472C243.827 67.2904 243.603 67.0585 243.731 66.5515L255.55 3.49361C255.69 3.15153 255.884 2.97123 256.131 2.95272L271.588 1.79594C272.165 1.75275 272.392 2.02586 272.271 2.61525L256 66.0063ZM254.363 75.7035C254.94 75.6603 255.165 75.8922 255.037 76.3992L251.418 92.8351C251.278 93.1772 251.084 93.3575 250.837 93.376L237.111 94.4033C236.534 94.4464 236.309 94.2146 236.437 93.7076L240.057 77.2716C240.197 76.9296 240.39 76.7493 240.638 76.7307L254.363 75.7035Z" fill="#C0E102"/>
</g>
<defs>
<filter id="filter0_d_5912_7172" x="0" y="0" width="281.283" height="115.369" filterUnits="userSpaceOnUse" color-interpolation-filters="sRGB">
<feFlood flood-opacity="0" result="BackgroundImageFix"/>
<feColorMatrix in="SourceAlpha" type="matrix" values="0 0 0 0 0 0 0 0 0 0 0 0 0 0 0 0 0 0 127 0" result="hardAlpha"/>
<feOffset dx="2" dy="2"/>
<feComposite in2="hardAlpha" operator="out"/>
<feColorMatrix type="matrix" values="0 0 0 0 1 0 0 0 0 0.2 0 0 0 0 0 0 0 0 1 0"/>
<feBlend mode="normal" in2="BackgroundImageFix" result="effect1_dropShadow_5912_7172"/>
<feBlend mode="normal" in="SourceGraphic" in2="effect1_dropShadow_5912_7172" result="shape"/>
</filter>
</defs>
</svg>
